<svg xmlns="http://www.w3.org/2000/svg" viewBox="0 0 400 240" role="img" aria-label="feelings">
  <defs>
    <linearGradient id="bg-feelings" x1="0" y1="0" x2="1" y2="1">
      <stop offset="0%" stop-color="rgb(226,212,251)"/>
      <stop offset="100%" stop-color="rgb(176,137,244)"/>
    </linearGradient>
    <radialGradient id="glow-feelings" cx="32%" cy="28%" r="65%">
      <stop offset="0%" stop-color="#ffffff" stop-opacity="0.65"/>
      <stop offset="100%" stop-color="#ffffff" stop-opacity="0"/>
    </radialGradient>
  </defs>
  <rect width="400" height="240" fill="url(#bg-feelings)"/>
  <rect width="400" height="240" fill="url(#glow-feelings)"/>
  <circle cx="350" cy="32" r="60" fill="#7c3aed" opacity="0.10"/>
  <circle cx="40" cy="210" r="70" fill="rgb(105,49,201)" opacity="0.08"/>
  <circle cx="160" cy="120" r="78" fill="#ffffff" opacity="0.55"/>
  <g transform="translate(122,64) scale(1.12)" fill="none" stroke="rgb(105,49,201)" stroke-width="3.4" stroke-linecap="round" stroke-linejoin="round" color="rgb(105,49,201)">
    <path d="M32 50C16 38 8 28 8 19c0-7 5-12 12-12 6 0 9 3 12 7 3-4 6-7 12-7 7 0 12 5 12 12 0 9-8 19-24 31z"/>
  </g>
</svg>
