<svg xmlns="http://www.w3.org/2000/svg" viewBox="0 0 400 240" role="img" aria-label="surprised">
  <defs>
    <linearGradient id="bg-surprised" x1="0" y1="0" x2="1" y2="1">
      <stop offset="0%" stop-color="rgb(250,218,202)"/>
      <stop offset="100%" stop-color="rgb(242,155,109)"/>
    </linearGradient>
    <radialGradient id="glow-surprised" cx="32%" cy="28%" r="65%">
      <stop offset="0%" stop-color="#ffffff" stop-opacity="0.65"/>
      <stop offset="100%" stop-color="#ffffff" stop-opacity="0"/>
    </radialGradient>
  </defs>
  <rect width="400" height="240" fill="url(#bg-surprised)"/>
  <rect width="400" height="240" fill="url(#glow-surprised)"/>
  <circle cx="350" cy="32" r="60" fill="#ea580c" opacity="0.10"/>
  <circle cx="40" cy="210" r="70" fill="rgb(199,75,10)" opacity="0.08"/>
  <circle cx="160" cy="120" r="78" fill="#ffffff" opacity="0.55"/>
  <g transform="translate(122,64) scale(1.12)" fill="none" stroke="rgb(199,75,10)" stroke-width="3.4" stroke-linecap="round" stroke-linejoin="round" color="rgb(199,75,10)">
    <rect x="10" y="24" width="44" height="30"/><rect x="10" y="24" width="44" height="10"/><line x1="32" y1="24" x2="32" y2="54"/><path d="M32 24c0-8-6-14-12-12-4 1-4 12 12 12z"/><path d="M32 24c0-8 6-14 12-12 4 1 4 12-12 12z"/>
  </g>
</svg>
